<svg xmlns="http://www.w3.org/2000/svg" viewBox="0 0 64 64">
  <defs>
    <linearGradient id="leaf" x1="0%" y1="0%" x2="100%" y2="100%">
      <stop offset="0%" stop-color="#34d399"/>
      <stop offset="100%" stop-color="#059669"/>
    </linearGradient>
  </defs>
  <!-- Main leaf body -->
  <path d="M32 4 C22 10, 10 22, 10 36 C10 48, 18 56, 28 58 C30 58, 31 58, 32 57 C33 58, 34 58, 36 58 C46 56, 54 48, 54 36 C54 22, 42 10, 32 4Z" fill="url(#leaf)"/>
  <path d="M32 4 C42 10, 54 22, 54 36 C54 48, 46 56, 36 58 C34 58, 33 58, 32 57 L32 4Z" fill="#059669" opacity="0.4"/>
  <!-- Central vein -->
  <path d="M32 12 L32 54" stroke="#f0fdf4" stroke-width="1.8" fill="none" stroke-linecap="round" opacity="0.7"/>
  <!-- Side veins -->
  <path d="M32 20 C28 22, 22 24, 18 26" stroke="#f0fdf4" stroke-width="1.2" fill="none" stroke-linecap="round" opacity="0.5"/>
  <path d="M32 28 C28 30, 20 33, 15 35" stroke="#f0fdf4" stroke-width="1.2" fill="none" stroke-linecap="round" opacity="0.5"/>
  <path d="M32 36 C28 38, 20 41, 16 43" stroke="#f0fdf4" stroke-width="1.2" fill="none" stroke-linecap="round" opacity="0.45"/>
  <path d="M32 20 C36 22, 42 24, 46 26" stroke="#f0fdf4" stroke-width="1.2" fill="none" stroke-linecap="round" opacity="0.5"/>
  <path d="M32 28 C36 30, 44 33, 49 35" stroke="#f0fdf4" stroke-width="1.2" fill="none" stroke-linecap="round" opacity="0.5"/>
  <path d="M32 36 C36 38, 44 41, 48 43" stroke="#f0fdf4" stroke-width="1.2" fill="none" stroke-linecap="round" opacity="0.45"/>
  <!-- Stem -->
  <path d="M32 57 C32 60, 33 62, 35 63" stroke="#059669" stroke-width="2" fill="none" stroke-linecap="round"/>
</svg>
